<svg width="33" height="33" viewBox="0 0 33 33" fill="none" xmlns="http://www.w3.org/2000/svg">
<path fill-rule="evenodd" clip-rule="evenodd" d="M16.4999 4.538C9.8725 4.538 4.49992 9.91059 4.49992 16.538C4.49992 23.1654 9.8725 28.538 16.4999 28.538C23.1273 28.538 28.4999 23.1654 28.4999 16.538C28.4999 9.91059 23.1273 4.538 16.4999 4.538ZM1.83325 16.538C1.83325 8.43783 8.39974 1.87134 16.4999 1.87134C24.6001 1.87134 31.1666 8.43783 31.1666 16.538C31.1666 24.6382 24.6001 31.2047 16.4999 31.2047C8.39974 31.2047 1.83325 24.6382 1.83325 16.538Z" fill="#B773FB"/>
<path fill-rule="evenodd" clip-rule="evenodd" d="M21.4429 12.9286C21.9636 13.4493 21.9636 14.2935 21.4429 14.8142L16.1096 20.1476C15.5889 20.6683 14.7446 20.6683 14.2239 20.1476L11.5573 17.4809C11.0366 16.9602 11.0366 16.116 11.5573 15.5953C12.078 15.0746 12.9222 15.0746 13.4429 15.5953L15.1667 17.3191L19.5573 12.9286C20.078 12.4079 20.9222 12.4079 21.4429 12.9286Z" fill="#B773FB"/>
</svg>
