<svg width="33" height="33" viewBox="0 0 33 33" fill="none" xmlns="http://www.w3.org/2000/svg">
<path fill-rule="evenodd" clip-rule="evenodd" d="M16.4999 4.31584C9.8725 4.31584 4.49992 9.68842 4.49992 16.3158C4.49992 22.9433 9.8725 28.3158 16.4999 28.3158C23.1273 28.3158 28.4999 22.9433 28.4999 16.3158C28.4999 9.68842 23.1273 4.31584 16.4999 4.31584ZM1.83325 16.3158C1.83325 8.21566 8.39974 1.64917 16.4999 1.64917C24.6001 1.64917 31.1666 8.21566 31.1666 16.3158C31.1666 24.416 24.6001 30.9825 16.4999 30.9825C8.39974 30.9825 1.83325 24.416 1.83325 16.3158Z" fill="#F8F8FF" fill-opacity="0.3"/>
<path fill-rule="evenodd" clip-rule="evenodd" d="M21.4429 12.7064C21.9636 13.2271 21.9636 14.0714 21.4429 14.5921L16.1096 19.9254C15.5889 20.4461 14.7446 20.4461 14.2239 19.9254L11.5573 17.2587C11.0366 16.738 11.0366 15.8938 11.5573 15.3731C12.078 14.8524 12.9222 14.8524 13.4429 15.3731L15.1667 17.097L19.5573 12.7064C20.078 12.1857 20.9222 12.1857 21.4429 12.7064Z" fill="#F8F8FF" fill-opacity="0.3"/>
</svg>
