<svg width="170" height="56" viewBox="0 0 170 56" fill="none" xmlns="http://www.w3.org/2000/svg">
<path d="M17.7287 0L17.3535 1.27454V38.2555L17.7287 38.6298L34.8945 28.483L17.7287 0Z" fill="#343434"/>
<path d="M17.7273 0L0.561035 28.483L17.7273 38.6298V20.6803V0Z" fill="#8C8C8C"/>
<path d="M17.7286 41.88L17.5171 42.1379V55.3111L17.7286 55.9284L34.9049 31.7384L17.7286 41.88Z" fill="#3C3C3B"/>
<path d="M17.7283 55.9284V41.88L0.562012 31.7384L17.7283 55.9284Z" fill="#8C8C8C"/>
<path d="M17.7275 38.6298L34.8933 28.483L17.7275 20.6803V38.6298Z" fill="#141414"/>
<path d="M0.562012 28.483L17.7283 38.6298V20.6803L0.562012 28.483Z" fill="#393939"/>
<path d="M60.5567 32.4847C60.5567 32.7496 60.3349 32.9651 60.0701 32.9651H50.6965C50.9306 35.2808 52.6735 37.3932 55.1247 37.3932C56.7998 37.3932 58.0439 36.7527 58.98 35.4163C59.1155 35.2315 59.3188 35.1145 59.5774 35.2254C59.7191 35.287 59.8176 35.4163 59.8422 35.5641C59.8669 35.7181 59.8238 35.8043 59.7807 35.8905C58.8384 37.5349 56.96 38.3417 55.1185 38.3417C51.9652 38.3417 49.7173 35.521 49.7173 32.5032C49.7173 29.4854 51.9652 26.6647 55.1185 26.6647C58.2718 26.6586 60.5505 29.4731 60.5567 32.4847ZM59.5528 32.029C59.3496 29.7133 57.5758 27.6009 55.1247 27.6009C52.6735 27.6009 50.9306 29.7133 50.6965 32.029H59.5528ZM71.9319 26.8926C72.2028 26.8926 72.3999 27.1266 72.3999 27.3607C72.3999 27.6316 72.1967 27.8287 71.9319 27.8287H69.4191V37.6889C69.4191 37.9229 69.2158 38.1569 68.951 38.1569C68.68 38.1569 68.483 37.9229 68.483 37.6889V27.8287H66.0687C65.7977 27.8287 65.6007 27.6255 65.6007 27.3607C65.6007 27.1266 65.8039 26.8926 66.0687 26.8926H68.483V23.2836C68.483 23.0557 68.6369 22.8463 68.8586 22.8094C69.1727 22.7601 69.4191 22.9756 69.4191 23.2713V26.8926H71.9319ZM87.2609 31.6595V37.6334C87.2609 37.9044 87.0269 38.1015 86.7929 38.1015C86.5219 38.1015 86.3248 37.8983 86.3248 37.6334V31.6595C86.3248 29.6456 85.1855 27.6316 82.9375 27.6316C80.0552 27.6316 78.8112 30.1506 78.9774 32.7311C78.9774 32.7988 79.0082 33.1006 79.0082 33.1314V37.615C79.0082 37.8428 78.8543 38.0522 78.6326 38.0892C78.3185 38.1385 78.0721 37.9229 78.0721 37.6273V18.0055C78.0721 17.7715 78.2753 17.5375 78.5402 17.5375C78.8112 17.5375 79.0082 17.7715 79.0082 18.0055V29.1097C79.815 27.6686 81.2562 26.6955 82.9314 26.6955C85.6843 26.6955 87.2609 29.1097 87.2609 31.6595ZM104.068 32.4847C104.068 32.7496 103.846 32.9651 103.582 32.9651H94.2018C94.4359 35.2808 96.1788 37.3932 98.63 37.3932C100.305 37.3932 101.549 36.7527 102.485 35.4163C102.621 35.2315 102.824 35.1145 103.083 35.2254C103.224 35.287 103.323 35.4163 103.348 35.5641C103.372 35.7181 103.329 35.8043 103.286 35.8905C102.344 37.5349 100.465 38.3417 98.6238 38.3417C95.4705 38.3417 93.2226 35.521 93.2226 32.5032C93.2226 29.4854 95.4705 26.6647 98.6238 26.6647C101.783 26.6586 104.062 29.4731 104.068 32.4847ZM103.058 32.029C102.855 29.7133 101.081 27.6009 98.63 27.6009C96.1788 27.6009 94.4359 29.7133 94.2018 32.029H103.058ZM115.573 27.3299C115.573 27.6316 115.406 27.7979 115.135 27.8349C112.382 28.2352 111.145 30.4831 111.145 33.1006V37.5842C111.145 37.812 110.991 38.0214 110.769 38.0584C110.455 38.1077 110.208 37.8921 110.208 37.5965V27.3791C110.208 27.1513 110.362 26.9419 110.584 26.9049C110.898 26.8556 111.145 27.0712 111.145 27.3668V29.4485C111.914 28.1428 113.46 26.8988 115.068 26.8988C115.302 26.8926 115.573 27.065 115.573 27.3299ZM130.969 32.4847C130.969 32.7496 130.748 32.9651 130.483 32.9651H121.109C121.343 35.2808 123.086 37.3932 125.537 37.3932C127.213 37.3932 128.457 36.7527 129.393 35.4163C129.528 35.2315 129.732 35.1145 129.99 35.2254C130.132 35.287 130.23 35.4163 130.255 35.5641C130.28 35.7181 130.237 35.8043 130.193 35.8905C129.251 37.5349 127.373 38.3417 125.531 38.3417C122.378 38.3417 120.13 35.521 120.13 32.5032C120.13 29.4854 122.378 26.6647 125.531 26.6647C128.685 26.6586 130.963 29.4731 130.969 32.4847ZM129.966 32.029C129.762 29.7133 127.989 27.6009 125.537 27.6009C123.086 27.6009 121.343 29.7133 121.109 32.029H129.966ZM146.102 27.4469V37.6889C146.102 37.9599 145.867 38.1569 145.633 38.1569C145.362 38.1569 145.165 37.9537 145.165 37.6889V35.7427C144.396 37.2885 143.016 38.391 141.273 38.391C138.489 38.391 136.943 35.9767 136.943 33.427V27.4222C136.943 27.1882 137.147 26.9542 137.412 26.9542C137.683 26.9542 137.88 27.1882 137.88 27.4222V33.427C137.88 35.4409 139.019 37.4548 141.267 37.4548C144.42 37.4548 145.159 34.5048 145.159 31.2468V27.4222C145.159 27.1513 145.43 26.8741 145.763 26.9727C145.966 27.0404 146.102 27.2375 146.102 27.4469ZM169.813 31.6225V37.6273C169.813 37.8983 169.579 38.0953 169.345 38.0953C169.074 38.0953 168.877 37.8921 168.877 37.6273V31.6225C168.877 29.6086 167.737 27.6316 165.489 27.6316C162.669 27.6316 161.597 30.6494 161.597 32.9959V37.6273C161.597 37.8983 161.363 38.0953 161.129 38.0953C160.858 38.0953 160.661 37.8921 160.661 37.6273V31.6225C160.661 29.6086 159.521 27.6316 157.273 27.6316C154.422 27.6316 153.246 29.8796 153.35 32.8666C153.35 32.9343 153.381 33.0698 153.35 33.1006V37.615C153.35 37.8428 153.196 38.0522 152.969 38.0892C152.654 38.1385 152.408 37.9229 152.408 37.6273V27.3791C152.408 27.1513 152.562 26.9419 152.784 26.9049C153.098 26.8556 153.344 27.0712 153.344 27.3668V29.0789C154.151 27.6378 155.592 26.6955 157.267 26.6955C159.177 26.6955 160.655 27.9026 161.258 29.6825C162.028 27.9396 163.537 26.6955 165.483 26.6955C168.236 26.6955 169.813 29.0728 169.813 31.6225Z" fill="white"/>
<path d="M60.5567 32.4847C60.5567 32.7496 60.3349 32.9651 60.0701 32.9651H50.6965C50.9306 35.2808 52.6735 37.3932 55.1247 37.3932C56.7998 37.3932 58.0439 36.7527 58.98 35.4163C59.1155 35.2315 59.3188 35.1145 59.5774 35.2254C59.7191 35.287 59.8176 35.4163 59.8422 35.5641C59.8669 35.7181 59.8238 35.8043 59.7807 35.8905C58.8384 37.5349 56.96 38.3417 55.1185 38.3417C51.9652 38.3417 49.7173 35.521 49.7173 32.5032C49.7173 29.4854 51.9652 26.6647 55.1185 26.6647C58.2718 26.6586 60.5505 29.4731 60.5567 32.4847ZM59.5528 32.029C59.3496 29.7133 57.5758 27.6009 55.1247 27.6009C52.6735 27.6009 50.9306 29.7133 50.6965 32.029H59.5528ZM71.9319 26.8926C72.2028 26.8926 72.3999 27.1266 72.3999 27.3607C72.3999 27.6316 72.1967 27.8287 71.9319 27.8287H69.4191V37.6889C69.4191 37.9229 69.2158 38.1569 68.951 38.1569C68.68 38.1569 68.483 37.9229 68.483 37.6889V27.8287H66.0687C65.7977 27.8287 65.6007 27.6255 65.6007 27.3607C65.6007 27.1266 65.8039 26.8926 66.0687 26.8926H68.483V23.2836C68.483 23.0557 68.6369 22.8463 68.8586 22.8094C69.1727 22.7601 69.4191 22.9756 69.4191 23.2713V26.8926H71.9319ZM87.2609 31.6595V37.6334C87.2609 37.9044 87.0269 38.1015 86.7929 38.1015C86.5219 38.1015 86.3248 37.8983 86.3248 37.6334V31.6595C86.3248 29.6456 85.1855 27.6316 82.9375 27.6316C80.0552 27.6316 78.8112 30.1506 78.9774 32.7311C78.9774 32.7988 79.0082 33.1006 79.0082 33.1314V37.615C79.0082 37.8428 78.8543 38.0522 78.6326 38.0892C78.3185 38.1385 78.0721 37.9229 78.0721 37.6273V18.0055C78.0721 17.7715 78.2753 17.5375 78.5402 17.5375C78.8112 17.5375 79.0082 17.7715 79.0082 18.0055V29.1097C79.815 27.6686 81.2562 26.6955 82.9314 26.6955C85.6843 26.6955 87.2609 29.1097 87.2609 31.6595ZM104.068 32.4847C104.068 32.7496 103.846 32.9651 103.582 32.9651H94.2018C94.4359 35.2808 96.1788 37.3932 98.63 37.3932C100.305 37.3932 101.549 36.7527 102.485 35.4163C102.621 35.2315 102.824 35.1145 103.083 35.2254C103.224 35.287 103.323 35.4163 103.348 35.5641C103.372 35.7181 103.329 35.8043 103.286 35.8905C102.344 37.5349 100.465 38.3417 98.6238 38.3417C95.4705 38.3417 93.2226 35.521 93.2226 32.5032C93.2226 29.4854 95.4705 26.6647 98.6238 26.6647C101.783 26.6586 104.062 29.4731 104.068 32.4847ZM103.058 32.029C102.855 29.7133 101.081 27.6009 98.63 27.6009C96.1788 27.6009 94.4359 29.7133 94.2018 32.029H103.058ZM115.573 27.3299C115.573 27.6316 115.406 27.7979 115.135 27.8349C112.382 28.2352 111.145 30.4831 111.145 33.1006V37.5842C111.145 37.812 110.991 38.0214 110.769 38.0584C110.455 38.1077 110.208 37.8921 110.208 37.5965V27.3791C110.208 27.1513 110.362 26.9419 110.584 26.9049C110.898 26.8556 111.145 27.0712 111.145 27.3668V29.4485C111.914 28.1428 113.46 26.8988 115.068 26.8988C115.302 26.8926 115.573 27.065 115.573 27.3299ZM130.969 32.4847C130.969 32.7496 130.748 32.9651 130.483 32.9651H121.109C121.343 35.2808 123.086 37.3932 125.537 37.3932C127.213 37.3932 128.457 36.7527 129.393 35.4163C129.528 35.2315 129.732 35.1145 129.99 35.2254C130.132 35.287 130.23 35.4163 130.255 35.5641C130.28 35.7181 130.237 35.8043 130.193 35.8905C129.251 37.5349 127.373 38.3417 125.531 38.3417C122.378 38.3417 120.13 35.521 120.13 32.5032C120.13 29.4854 122.378 26.6647 125.531 26.6647C128.685 26.6586 130.963 29.4731 130.969 32.4847ZM129.966 32.029C129.762 29.7133 127.989 27.6009 125.537 27.6009C123.086 27.6009 121.343 29.7133 121.109 32.029H129.966ZM146.102 27.4469V37.6889C146.102 37.9599 145.867 38.1569 145.633 38.1569C145.362 38.1569 145.165 37.9537 145.165 37.6889V35.7427C144.396 37.2885 143.016 38.391 141.273 38.391C138.489 38.391 136.943 35.9767 136.943 33.427V27.4222C136.943 27.1882 137.147 26.9542 137.412 26.9542C137.683 26.9542 137.88 27.1882 137.88 27.4222V33.427C137.88 35.4409 139.019 37.4548 141.267 37.4548C144.42 37.4548 145.159 34.5048 145.159 31.2468V27.4222C145.159 27.1513 145.43 26.8741 145.763 26.9727C145.966 27.0404 146.102 27.2375 146.102 27.4469ZM169.813 31.6225V37.6273C169.813 37.8983 169.579 38.0953 169.345 38.0953C169.074 38.0953 168.877 37.8921 168.877 37.6273V31.6225C168.877 29.6086 167.737 27.6316 165.489 27.6316C162.669 27.6316 161.597 30.6494 161.597 32.9959V37.6273C161.597 37.8983 161.363 38.0953 161.129 38.0953C160.858 38.0953 160.661 37.8921 160.661 37.6273V31.6225C160.661 29.6086 159.521 27.6316 157.273 27.6316C154.422 27.6316 153.246 29.8796 153.35 32.8666C153.35 32.9343 153.381 33.0698 153.35 33.1006V37.615C153.35 37.8428 153.196 38.0522 152.969 38.0892C152.654 38.1385 152.408 37.9229 152.408 37.6273V27.3791C152.408 27.1513 152.562 26.9419 152.784 26.9049C153.098 26.8556 153.344 27.0712 153.344 27.3668V29.0789C154.151 27.6378 155.592 26.6955 157.267 26.6955C159.177 26.6955 160.655 27.9026 161.258 29.6825C162.028 27.9396 163.537 26.6955 165.483 26.6955C168.236 26.6955 169.813 29.0728 169.813 31.6225Z" fill="white"/>
</svg>
