<svg width="167" height="39" viewBox="0 0 167 39" fill="none" xmlns="http://www.w3.org/2000/svg">
<g clip-path="url(#clip0_304_1151)">
<mask id="mask0_304_1151" style="mask-type:luminance" maskUnits="userSpaceOnUse" x="0" y="0" width="167" height="39">
<path d="M0 0H166.401V38.4002H0V0Z" fill="white"/>
</mask>
<g mask="url(#mask0_304_1151)">
<path d="M44.0539 19.9662V29.8961C44.0455 30.5161 43.8786 31.1237 43.569 31.661C43.2601 32.1978 42.8174 32.6454 42.2841 32.9603L33.6828 37.9156C33.1496 38.2327 32.5407 38.4001 31.9204 38.4001C31.3 38.4001 30.6911 38.2327 30.158 37.9156L21.5567 32.9603C21.0234 32.6454 20.5807 32.1977 20.2717 31.661C19.9621 31.1237 19.7952 30.5161 19.7868 29.8961V27.113L24.1894 24.553V29.4015L31.8986 33.8768L39.6029 29.4015V20.4753L31.8986 16.0002L13.8427 26.4585C13.3054 26.7637 12.6981 26.9241 12.0802 26.9241C11.4623 26.9241 10.855 26.7637 10.3177 26.4585L1.71641 21.4839C1.19149 21.1657 0.757655 20.7172 0.456945 20.1821C0.156235 19.6469 -0.00116093 19.0432 6.44659e-06 18.4293V8.49953C0.00305022 7.8801 0.166847 7.27206 0.47537 6.73492C0.783894 6.19778 1.22658 5.74993 1.7601 5.4352L10.3612 0.479866C10.8945 0.165613 11.5022 -0.00012207 12.1212 -0.00012207C12.7402 -0.00012207 13.3479 0.165613 13.8812 0.479866L22.4825 5.4352C23.016 5.75033 23.4589 6.19809 23.7682 6.73498C24.0774 7.27186 24.2426 7.87961 24.2476 8.49919V11.2823L19.816 13.823V9.00846L12.107 4.53322L4.40254 9.00829V17.92L12.1068 22.3953L30.1773 11.9368C30.7145 11.6317 31.3218 11.4712 31.9397 11.4712C32.5576 11.4712 33.1649 11.6317 33.7022 11.9368L42.2987 16.9116C42.8282 17.2272 43.267 17.6742 43.5728 18.2094C43.8787 18.7445 44.041 19.3496 44.0442 19.966L44.0539 19.9662Z" fill="#8247E5"/>
<path d="M59.3822 33.5086V25.7509C60.2211 26.8078 61.7482 27.3994 63.5131 27.3994C68.0175 27.3994 71.0624 24.1993 71.0624 19.3217C71.0624 14.444 68.2648 11.244 63.8865 11.244C61.8646 11.244 60.313 11.9859 59.3773 13.1834V11.4623H55.0669V33.4601L59.3822 33.5086ZM62.9797 23.6855C60.6428 23.6855 59.1252 21.9448 59.1252 19.3217C59.1252 16.6985 60.6428 14.958 62.9797 14.958C65.3168 14.958 66.8005 16.6792 66.8005 19.3217C66.8005 21.9641 65.2537 23.6855 62.9797 23.6855ZM80.8723 27.419C85.6869 27.419 89.1149 23.9959 89.1149 19.3413C89.1149 14.6867 85.6723 11.2636 80.8723 11.2636C76.0723 11.2636 72.6298 14.6575 72.6298 19.3413C72.6298 24.0249 76.0528 27.419 80.8723 27.419ZM80.8723 23.6855C78.5402 23.6855 76.9547 21.9158 76.9547 19.3218C76.9547 16.7279 78.5449 14.9582 80.8723 14.9582C83.1995 14.9582 84.785 16.728 84.785 19.3218C84.785 21.9158 83.2045 23.6855 80.8723 23.6855ZM96.0658 27.1715V4.70349H91.7555V27.1715H96.0658ZM109.044 11.5106L105.78 21.6052L102.488 11.5106H98.0567L103.739 27.0259L101.451 33.5084H105.582L107.802 27.1132L113.49 11.5155L109.044 11.5106ZM125.618 13.0624C124.746 11.9763 123.194 11.2636 121.298 11.2636C116.731 11.2636 113.967 14.4588 113.967 19.3413C113.967 24.2238 116.721 27.419 121.361 27.419C123.194 27.419 124.843 26.7303 125.647 25.5812V27.6468C125.647 29.1014 124.678 30.1341 123.383 30.1341H116.173V33.528H124.067C127.606 33.528 129.968 31.385 129.968 28.122V11.5109H125.604L125.618 13.0624ZM122.045 23.6855C119.747 23.6855 118.224 21.9692 118.224 19.3218C118.224 16.6746 119.747 14.9582 122.045 14.9582C124.343 14.9582 125.895 16.6794 125.895 19.3218C125.895 21.9643 124.377 23.6855 122.045 23.6855ZM140.858 27.419C145.673 27.419 149.101 23.9959 149.101 19.3413C149.101 14.6867 145.658 11.2636 140.858 11.2636C136.058 11.2636 132.616 14.6575 132.616 19.3413C132.616 24.0249 136.039 27.419 140.858 27.419ZM140.858 23.6855C138.526 23.6855 136.94 21.9158 136.94 19.3218C136.94 16.7279 138.526 14.9582 140.858 14.9582C143.19 14.9582 144.771 16.728 144.771 19.3218C144.771 21.9158 143.185 23.6855 140.858 23.6855ZM155.83 27.1717V18.5946C155.83 16.5727 157.168 15.1134 159.064 15.1134C160.863 15.1134 162.075 16.4903 162.075 18.3763V27.1717H166.438V17.4116C166.438 13.8091 164.14 11.2636 160.591 11.2636C158.448 11.2636 156.712 12.1606 155.84 13.6879V11.5302H151.476L151.476 27.191L155.83 27.1717Z" fill="white"/>
</g>
</g>
<defs>
<clipPath id="clip0_304_1151">
<rect width="166.401" height="38.4002" fill="white"/>
</clipPath>
</defs>
</svg>
