<svg width="79" height="57" viewBox="0 0 79 57" fill="none" xmlns="http://www.w3.org/2000/svg">
<path fill-rule="evenodd" clip-rule="evenodd" d="M26.4702 0.678223H78.8799L78.8798 8.16515C74.7448 8.16515 71.3927 11.5172 71.3927 15.6522C71.3927 19.7872 74.7448 23.1393 78.8798 23.1393L78.8799 30.6266H26.4702V23.1393H26.4705C30.6055 23.1393 33.9575 19.7872 33.9575 15.6522C33.9575 11.5172 30.6055 8.16515 26.4705 8.16515H26.4702V0.678223Z" fill="url(#paint0_linear_313_1431)"/>
<g filter="url(#filter0_bd_313_1431)">
<mask id="path-2-inside-1_313_1431" fill="white">
<path fill-rule="evenodd" clip-rule="evenodd" d="M9 9.06618C9 8.56997 9.40225 8.16772 9.89845 8.16772H60.5112C61.0074 8.16772 61.4096 8.56997 61.4096 9.06618V15.6546C61.4096 15.6546 61.4096 15.6547 61.4096 15.6547C57.2746 15.6547 53.9225 19.0067 53.9225 23.1418C53.9225 27.2768 57.2746 30.6288 61.4096 30.6288C61.4096 30.6288 61.4096 30.6289 61.4096 30.6289V37.2176C61.4096 37.7138 61.0074 38.1161 60.5112 38.1161H9.89845C9.40225 38.1161 9 37.7138 9 37.2176V30.629C9 30.6289 9.00008 30.6288 9.00019 30.6288C13.1352 30.6288 16.4873 27.2768 16.4873 23.1418C16.4873 19.0067 13.1352 15.6547 9.00019 15.6547C9.00008 15.6547 9 15.6546 9 15.6545V9.06618Z"/>
</mask>
<path fill-rule="evenodd" clip-rule="evenodd" d="M9 9.06618C9 8.56997 9.40225 8.16772 9.89845 8.16772H60.5112C61.0074 8.16772 61.4096 8.56997 61.4096 9.06618V15.6546C61.4096 15.6546 61.4096 15.6547 61.4096 15.6547C57.2746 15.6547 53.9225 19.0067 53.9225 23.1418C53.9225 27.2768 57.2746 30.6288 61.4096 30.6288C61.4096 30.6288 61.4096 30.6289 61.4096 30.6289V37.2176C61.4096 37.7138 61.0074 38.1161 60.5112 38.1161H9.89845C9.40225 38.1161 9 37.7138 9 37.2176V30.629C9 30.6289 9.00008 30.6288 9.00019 30.6288C13.1352 30.6288 16.4873 27.2768 16.4873 23.1418C16.4873 19.0067 13.1352 15.6547 9.00019 15.6547C9.00008 15.6547 9 15.6546 9 15.6545V9.06618Z" fill="url(#paint1_linear_313_1431)" shape-rendering="crispEdges"/>
<path d="M60.5112 7.04466H9.89845V9.29079H60.5112V7.04466ZM62.5327 15.6546V9.06618H60.2866V15.6546H62.5327ZM55.0455 23.1418C55.0455 19.627 57.8948 16.7777 61.4096 16.7777V14.5316C56.6543 14.5316 52.7994 18.3865 52.7994 23.1418H55.0455ZM61.4096 29.5058C57.8948 29.5058 55.0455 26.6565 55.0455 23.1418H52.7994C52.7994 27.897 56.6543 31.7519 61.4096 31.7519V29.5058ZM62.5327 37.2176V30.6289H60.2866V37.2176H62.5327ZM9.89845 39.2392H60.5112V36.993H9.89845V39.2392ZM7.87694 30.629V37.2176H10.1231V30.629H7.87694ZM15.3642 23.1418C15.3642 26.6565 12.5149 29.5058 9.00019 29.5058V31.7519C13.7554 31.7519 17.6103 27.897 17.6103 23.1418H15.3642ZM9.00019 16.7777C12.5149 16.7777 15.3642 19.627 15.3642 23.1418H17.6103C17.6103 18.3865 13.7554 14.5316 9.00019 14.5316V16.7777ZM7.87694 9.06618V15.6545H10.1231V9.06618H7.87694ZM10.1231 30.629C10.1231 31.2492 9.62033 31.7519 9.00019 31.7519V29.5058C8.37983 29.5058 7.87694 30.0087 7.87694 30.629H10.1231ZM9.89845 36.993C10.0225 36.993 10.1231 37.0936 10.1231 37.2176H7.87694C7.87694 38.3341 8.782 39.2392 9.89845 39.2392V36.993ZM60.2866 37.2176C60.2866 37.0936 60.3871 36.993 60.5112 36.993V39.2392C61.6276 39.2392 62.5327 38.3341 62.5327 37.2176H60.2866ZM9.00019 14.5316C9.62081 14.5316 10.1231 15.0348 10.1231 15.6545H7.87694C7.87694 16.2743 8.37935 16.7777 9.00019 16.7777V14.5316ZM60.2866 15.6546C60.2866 15.0344 60.7894 14.5316 61.4096 14.5316V16.7777C62.0299 16.7777 62.5327 16.2749 62.5327 15.6546H60.2866ZM61.4096 31.7519C60.7853 31.7519 60.2866 31.2451 60.2866 30.6289H62.5327C62.5327 30.0127 62.0339 29.5058 61.4096 29.5058V31.7519ZM9.89845 7.04466C8.782 7.04466 7.87694 7.94972 7.87694 9.06618H10.1231C10.1231 9.19023 10.0225 9.29079 9.89845 9.29079V7.04466ZM60.5112 9.29079C60.3871 9.29079 60.2866 9.19023 60.2866 9.06618H62.5327C62.5327 7.94972 61.6276 7.04466 60.5112 7.04466V9.29079Z" fill="url(#paint2_linear_313_1431)" mask="url(#path-2-inside-1_313_1431)"/>
</g>
<defs>
<filter id="filter0_bd_313_1431" x="0.0154905" y="-0.816785" width="70.3787" height="56.9019" filterUnits="userSpaceOnUse" color-interpolation-filters="sRGB">
<feFlood flood-opacity="0" result="BackgroundImageFix"/>
<feGaussianBlur in="BackgroundImageFix" stdDeviation="4.49225"/>
<feComposite in2="SourceAlpha" operator="in" result="effect1_backgroundBlur_313_1431"/>
<feColorMatrix in="SourceAlpha" type="matrix" values="0 0 0 0 0 0 0 0 0 0 0 0 0 0 0 0 0 0 127 0" result="hardAlpha"/>
<feOffset dy="8.98451"/>
<feGaussianBlur stdDeviation="4.49225"/>
<feComposite in2="hardAlpha" operator="out"/>
<feColorMatrix type="matrix" values="0 0 0 0 0 0 0 0 0 0 0 0 0 0 0 0 0 0 0.25 0"/>
<feBlend mode="normal" in2="effect1_backgroundBlur_313_1431" result="effect2_dropShadow_313_1431"/>
<feBlend mode="normal" in="SourceGraphic" in2="effect2_dropShadow_313_1431" result="shape"/>
</filter>
<linearGradient id="paint0_linear_313_1431" x1="26.4702" y1="0.678223" x2="52.2719" y2="45.8311" gradientUnits="userSpaceOnUse">
<stop stop-color="#FF96F9"/>
<stop offset="1" stop-color="#B773FB"/>
</linearGradient>
<linearGradient id="paint1_linear_313_1431" x1="1.13855" y1="41.1109" x2="31.4951" y2="-9.7033" gradientUnits="userSpaceOnUse">
<stop stop-color="white" stop-opacity="0.2"/>
<stop offset="1" stop-color="white" stop-opacity="0.5"/>
</linearGradient>
<linearGradient id="paint2_linear_313_1431" x1="56.1687" y1="41.1109" x2="34.8503" y2="-3.45047" gradientUnits="userSpaceOnUse">
<stop stop-color="white" stop-opacity="0"/>
<stop offset="1" stop-color="white"/>
</linearGradient>
</defs>
</svg>
